<?xml version="1.0" encoding="UTF-8" standalone="no"?>
<!DOCTYPE svg PUBLIC "-//W3C//DTD SVG 1.1//EN"
 "http://www.w3.org/Graphics/SVG/1.1/DTD/svg11.dtd">
<!-- Generated by graphviz version 14.1.3 (0)
 -->
<!-- Title: WARD End&#45;to&#45;End Tech Stack Pages: 1 -->
<svg width="2316pt" height="1439pt"
 viewBox="0.00 0.00 2316.00 1439.00" xmlns="http://www.w3.org/2000/svg" xmlns:xlink="http://www.w3.org/1999/xlink">
<g id="graph0" class="graph" transform="scale(1 1) rotate(0) translate(25.2 1413.9)">
<title>WARD End&#45;to&#45;End Tech Stack</title>
<polygon fill="white" stroke="none" points="-25.2,25.2 -25.2,-1413.9 2290.55,-1413.9 2290.55,25.2 -25.2,25.2"/>
<text xml:space="preserve" text-anchor="middle" x="142.62" y="-1365.7" font-family="Sans-Serif" font-size="20.00" fill="#2d3436">WARD End&#45;to&#45;End Tech Stack</text>
<g id="clust1" class="cluster">
<title>cluster_Robot Hardware</title>
<path fill="#e5f5fd" stroke="#aeb6be" d="M916.4,-667C916.4,-667 2026.8,-667 2026.8,-667 2032.8,-667 2038.8,-673 2038.8,-679 2038.8,-679 2038.8,-1078 2038.8,-1078 2038.8,-1084 2032.8,-1090 2026.8,-1090 2026.8,-1090 916.4,-1090 916.4,-1090 910.4,-1090 904.4,-1084 904.4,-1078 904.4,-1078 904.4,-679 904.4,-679 904.4,-673 910.4,-667 916.4,-667"/>
<text xml:space="preserve" text-anchor="middle" x="956.28" y="-1074.6" font-family="Sans-Serif" font-size="12.00" fill="#2d3436">Robot Hardware</text>
</g>
<g id="clust2" class="cluster">
<title>cluster_Firmware Stack (src/main.cpp)</title>
<path fill="#e5f5fd" stroke="#aeb6be" d="M20,-1098C20,-1098 1009.2,-1098 1009.2,-1098 1015.2,-1098 1021.2,-1104 1021.2,-1110 1021.2,-1110 1021.2,-1317 1021.2,-1317 1021.2,-1323 1015.2,-1329 1009.2,-1329 1009.2,-1329 20,-1329 20,-1329 14,-1329 8,-1323 8,-1317 8,-1317 8,-1110 8,-1110 8,-1104 14,-1098 20,-1098"/>
<text xml:space="preserve" text-anchor="middle" x="96.62" y="-1313.6" font-family="Sans-Serif" font-size="12.00" fill="#2d3436">Firmware Stack (src/main.cpp)</text>
</g>
<g id="clust3" class="cluster">
<title>cluster_Host Software Stack</title>
<path fill="#e5f5fd" stroke="#aeb6be" d="M276.8,-8C276.8,-8 2245.35,-8 2245.35,-8 2251.35,-8 2257.35,-14 2257.35,-20 2257.35,-20 2257.35,-503 2257.35,-503 2257.35,-509 2251.35,-515 2245.35,-515 2245.35,-515 276.8,-515 276.8,-515 270.8,-515 264.8,-509 264.8,-503 264.8,-503 264.8,-20 264.8,-20 264.8,-14 270.8,-8 276.8,-8"/>
<text xml:space="preserve" text-anchor="middle" x="326.8" y="-499.6" font-family="Sans-Serif" font-size="12.00" fill="#2d3436">Host Software Stack</text>
</g>
<!-- f1c1b24e14af48a2824c50b062de51b6 -->
<g id="node1" class="node">
<title>f1c1b24e14af48a2824c50b062de51b6</title>
<image xlink:href="/Users/haysoncheung/miniconda3/envs/praxis/lib/python3.12/site-packages/resources/onprem/client/user.png" width="100.8px" height="100.8px" preserveAspectRatio="xMinYMin meet" x="272.8" y="-641.4"/>
<text xml:space="preserve" text-anchor="middle" x="323.2" y="-523.75" font-family="Sans-Serif" font-size="13.00" fill="#2d3436">Operator</text>
</g>
<!-- 91a27470ec0f4745a6fe83da2b2bb41c -->
<g id="node17" class="node">
<title>91a27470ec0f4745a6fe83da2b2bb41c</title>
<image xlink:href="/Users/haysoncheung/miniconda3/envs/praxis/lib/python3.12/site-packages/resources/programming/language/javascript.png" width="100.8px" height="100.8px" preserveAspectRatio="xMinYMin meet" x="1222.45" y="-439.4"/>
<text xml:space="preserve" text-anchor="middle" x="1272.85" y="-319.95" font-family="Sans-Serif" font-size="13.00" fill="#2d3436">Control dashboard</text>
<text xml:space="preserve" text-anchor="middle" x="1272.85" y="-306.45" font-family="Sans-Serif" font-size="13.00" fill="#2d3436">static/index.html</text>
<text xml:space="preserve" text-anchor="middle" x="1272.85" y="-292.95" font-family="Sans-Serif" font-size="13.00" fill="#2d3436">2D live plots + scan controls</text>
</g>
<!-- f1c1b24e14af48a2824c50b062de51b6&#45;&gt;91a27470ec0f4745a6fe83da2b2bb41c -->
<g id="edge19" class="edge">
<title>f1c1b24e14af48a2824c50b062de51b6&#45;&gt;91a27470ec0f4745a6fe83da2b2bb41c</title>
<path fill="none" stroke="#7b8894" d="M373.18,-590.1C488.12,-587 783.37,-573.3 1021.2,-513 1098.02,-493.52 1116.41,-483.08 1186.45,-446 1195.36,-441.28 1204.5,-435.87 1213.33,-430.3"/>
<polygon fill="#7b8894" stroke="#7b8894" points="1214.99,-433.39 1221.5,-425.03 1211.2,-427.51 1214.99,-433.39"/>
<text xml:space="preserve" text-anchor="middle" x="772.53" y="-571.96" font-family="Sans-Serif" font-size="13.00" fill="#2d3436">scan / baseline / monitoring control</text>
</g>
<!-- ff72d2581de447278a5fc113ada88031 -->
<g id="node19" class="node">
<title>ff72d2581de447278a5fc113ada88031</title>
<image xlink:href="/Users/haysoncheung/miniconda3/envs/praxis/lib/python3.12/site-packages/resources/programming/framework/react.png" width="100.8px" height="100.8px" preserveAspectRatio="xMinYMin meet" x="531.85" y="-438.4"/>
<text xml:space="preserve" text-anchor="middle" x="582.25" y="-318.95" font-family="Sans-Serif" font-size="13.00" fill="#2d3436">3D viewer</text>
<text xml:space="preserve" text-anchor="middle" x="582.25" y="-305.45" font-family="Sans-Serif" font-size="13.00" fill="#2d3436">React 19 + Three.js</text>
<text xml:space="preserve" text-anchor="middle" x="582.25" y="-291.95" font-family="Sans-Serif" font-size="13.00" fill="#2d3436">@react&#45;three/fiber + drei</text>
</g>
<!-- f1c1b24e14af48a2824c50b062de51b6&#45;&gt;ff72d2581de447278a5fc113ada88031 -->
<g id="edge22" class="edge">
<title>f1c1b24e14af48a2824c50b062de51b6&#45;&gt;ff72d2581de447278a5fc113ada88031</title>
<path fill="none" stroke="#7b8894" d="M373.46,-552.1C416.23,-518.32 478.23,-469.36 523.37,-433.71"/>
<polygon fill="#7b8894" stroke="#7b8894" points="525.29,-436.65 530.97,-427.71 520.95,-431.16 525.29,-436.65"/>
<text xml:space="preserve" text-anchor="middle" x="452.73" y="-520.69" font-family="Sans-Serif" font-size="13.00" fill="#2d3436">3D inspection</text>
</g>
<!-- 33ee84a1767b4d7c879343b6ee8ece87 -->
<g id="node2" class="node">
<title>33ee84a1767b4d7c879343b6ee8ece87</title>
<image xlink:href="/Users/haysoncheung/programs/PRAXIS/praxis3/WARD/assets/diagram-icons/object_scene.png" width="100.8px" height="100.8px" preserveAspectRatio="xMinYMin meet" x="531.85" y="-990.4"/>
<text xml:space="preserve" text-anchor="middle" x="582.25" y="-871.85" font-family="Sans-Serif" font-size="13.00" fill="#2d3436">Physical scene</text>
<text xml:space="preserve" text-anchor="middle" x="582.25" y="-858.35" font-family="Sans-Serif" font-size="13.00" fill="#2d3436">foreground object / room</text>
</g>
<!-- 88bf1a1045484ec889a0d414fb97cb5b -->
<g id="node5" class="node">
<title>88bf1a1045484ec889a0d414fb97cb5b</title>
<image xlink:href="/Users/haysoncheung/programs/PRAXIS/praxis3/WARD/assets/diagram-icons/tof_sensor.png" width="100.8px" height="100.8px" preserveAspectRatio="xMinYMin meet" x="912.4" y="-990.4"/>
<text xml:space="preserve" text-anchor="middle" x="962.8" y="-871.85" font-family="Sans-Serif" font-size="13.00" fill="#2d3436">VL53L1X ToF sensor</text>
<text xml:space="preserve" text-anchor="middle" x="962.8" y="-858.35" font-family="Sans-Serif" font-size="13.00" fill="#2d3436">I2C long&#45;range samples</text>
</g>
<!-- 33ee84a1767b4d7c879343b6ee8ece87&#45;&gt;88bf1a1045484ec889a0d414fb97cb5b -->
<g id="edge6" class="edge">
<title>33ee84a1767b4d7c879343b6ee8ece87&#45;&gt;88bf1a1045484ec889a0d414fb97cb5b</title>
<path fill="none" stroke="#7b8894" d="M632.35,-940C701.33,-940 826.81,-940 901.41,-940"/>
<polygon fill="#7b8894" stroke="#7b8894" points="900.97,-943.5 910.97,-940 900.97,-936.5 900.97,-943.5"/>
<text xml:space="preserve" text-anchor="middle" x="772.53" y="-941.15" font-family="Sans-Serif" font-size="13.00" fill="#2d3436">distance target</text>
</g>
<!-- 3c38e65274dd46a8becb575243661271 -->
<g id="node3" class="node">
<title>3c38e65274dd46a8becb575243661271</title>
<image xlink:href="/Users/haysoncheung/miniconda3/envs/praxis/lib/python3.12/site-packages/resources/onprem/network/internet.png" width="100.8px" height="100.8px" preserveAspectRatio="xMinYMin meet" x="1634.73" y="-641.4"/>
<text xml:space="preserve" text-anchor="middle" x="1685.13" y="-523.75" font-family="Sans-Serif" font-size="13.00" fill="#2d3436">Wi&#45;Fi LAN</text>
</g>
<!-- 993cc0c327824753ac10d2074c31140f -->
<g id="node15" class="node">
<title>993cc0c327824753ac10d2074c31140f</title>
<image xlink:href="/Users/haysoncheung/miniconda3/envs/praxis/lib/python3.12/site-packages/resources/programming/language/python.png" width="100.8px" height="100.8px" preserveAspectRatio="xMinYMin meet" x="1222.45" y="-191.4"/>
<text xml:space="preserve" text-anchor="middle" x="1272.85" y="-71.95" font-family="Sans-Serif" font-size="13.00" fill="#2d3436">Robot hub + capture engine</text>
<text xml:space="preserve" text-anchor="middle" x="1272.85" y="-58.45" font-family="Sans-Serif" font-size="13.00" fill="#2d3436">TCP listener 9000</text>
<text xml:space="preserve" text-anchor="middle" x="1272.85" y="-44.95" font-family="Sans-Serif" font-size="13.00" fill="#2d3436">baseline / residual / monitoring</text>
</g>
<!-- 3c38e65274dd46a8becb575243661271&#45;&gt;993cc0c327824753ac10d2074c31140f -->
<g id="edge12" class="edge">
<title>3c38e65274dd46a8becb575243661271&#45;&gt;993cc0c327824753ac10d2074c31140f</title>
<path fill="none" stroke="#7b8894" d="M1634.92,-542.97C1627.33,-535.11 1619.71,-526.94 1612.75,-519 1595.52,-499.35 1593.72,-492.38 1576.75,-472.5 1485.1,-365.12 1453.45,-346.15 1359.25,-241 1349.78,-230.43 1339.88,-219.1 1330.3,-208"/>
<polygon fill="#7b8894" stroke="#7b8894" points="1333.22,-206.02 1324.05,-200.72 1327.91,-210.58 1333.22,-206.02"/>
<text xml:space="preserve" text-anchor="middle" x="1468" y="-473.65" font-family="Sans-Serif" font-size="13.00" fill="#2d3436">TCP 9000</text>
</g>
<!-- 7868f3dd957c4d7ca63fa67f3ff73e26 -->
<g id="node4" class="node">
<title>7868f3dd957c4d7ca63fa67f3ff73e26</title>
<image xlink:href="/Users/haysoncheung/programs/PRAXIS/praxis3/WARD/assets/diagram-icons/nano_rp2040.png" width="100.8px" height="100.8px" preserveAspectRatio="xMinYMin meet" x="1222.45" y="-990.4"/>
<text xml:space="preserve" text-anchor="middle" x="1272.85" y="-871.85" font-family="Sans-Serif" font-size="13.00" fill="#2d3436">Arduino Nano RP2040 Connect</text>
<text xml:space="preserve" text-anchor="middle" x="1272.85" y="-858.35" font-family="Sans-Serif" font-size="13.00" fill="#2d3436">robot controller</text>
</g>
<!-- 7868f3dd957c4d7ca63fa67f3ff73e26&#45;&gt;3c38e65274dd46a8becb575243661271 -->
<g id="edge11" class="edge">
<title>7868f3dd957c4d7ca63fa67f3ff73e26&#45;&gt;3c38e65274dd46a8becb575243661271</title>
<path fill="none" stroke="#7b8894" d="M1290.34,-857.26C1302.79,-813.35 1323.99,-761.24 1359.25,-725.5 1432.19,-651.56 1551.69,-616.49 1623.63,-601.29"/>
<polygon fill="#7b8894" stroke="#7b8894" points="1624.17,-604.75 1633.27,-599.32 1622.77,-597.89 1624.17,-604.75"/>
<text xml:space="preserve" text-anchor="middle" x="1468" y="-726.65" font-family="Sans-Serif" font-size="13.00" fill="#2d3436">802.11 via WiFiNINA</text>
</g>
<!-- 0a471af32ec34cc8b4244f4aebd4ad9a -->
<g id="node6" class="node">
<title>0a471af32ec34cc8b4244f4aebd4ad9a</title>
<image xlink:href="/Users/haysoncheung/programs/PRAXIS/praxis3/WARD/assets/diagram-icons/drv8833.png" width="100.8px" height="100.8px" preserveAspectRatio="xMinYMin meet" x="1634.73" y="-990.4"/>
<text xml:space="preserve" text-anchor="middle" x="1685.13" y="-872.75" font-family="Sans-Serif" font-size="13.00" fill="#2d3436">DRV8833 motor driver</text>
</g>
<!-- 7868f3dd957c4d7ca63fa67f3ff73e26&#45;&gt;0a471af32ec34cc8b4244f4aebd4ad9a -->
<g id="edge8" class="edge">
<title>7868f3dd957c4d7ca63fa67f3ff73e26&#45;&gt;0a471af32ec34cc8b4244f4aebd4ad9a</title>
<path fill="none" stroke="#7b8894" d="M1322.93,-940C1398.3,-940 1542.34,-940 1623.91,-940"/>
<polygon fill="#7b8894" stroke="#7b8894" points="1623.47,-943.5 1633.47,-940 1623.47,-936.5 1623.47,-943.5"/>
<text xml:space="preserve" text-anchor="middle" x="1468" y="-941.15" font-family="Sans-Serif" font-size="13.00" fill="#2d3436">step sequences</text>
</g>
<!-- 8a019e0f425f4704937a23f021294027 -->
<g id="node21" class="node">
<title>8a019e0f425f4704937a23f021294027</title>
<image xlink:href="/Users/haysoncheung/miniconda3/envs/praxis/lib/python3.12/site-packages/resources/programming/language/python.png" width="100.8px" height="100.8px" preserveAspectRatio="xMinYMin meet" x="1930" y="-402.4"/>
<text xml:space="preserve" text-anchor="middle" x="1980.4" y="-282.95" font-family="Sans-Serif" font-size="13.00" fill="#2d3436">plot_lidar.py</text>
<text xml:space="preserve" text-anchor="middle" x="1980.4" y="-269.45" font-family="Sans-Serif" font-size="13.00" fill="#2d3436">NumPy + Matplotlib</text>
<text xml:space="preserve" text-anchor="middle" x="1980.4" y="-255.95" font-family="Sans-Serif" font-size="13.00" fill="#2d3436">optional pyserial serial mode</text>
</g>
<!-- 7868f3dd957c4d7ca63fa67f3ff73e26&#45;&gt;8a019e0f425f4704937a23f021294027 -->
<g id="edge26" class="edge">
<title>7868f3dd957c4d7ca63fa67f3ff73e26&#45;&gt;8a019e0f425f4704937a23f021294027</title>
<path fill="none" stroke="#7b8894" d="M1322.97,-923.57C1416.24,-890.5 1621.76,-808.45 1757.5,-686 1828.72,-621.76 1887.55,-529.93 1926.7,-458.81"/>
<polygon fill="#7b8894" stroke="#7b8894" points="1929.65,-460.7 1931.37,-450.24 1923.51,-457.35 1929.65,-460.7"/>
<text xml:space="preserve" text-anchor="middle" x="1685.13" y="-789.1" font-family="Sans-Serif" font-size="13.00" fill="#2d3436">optional USB serial path</text>
</g>
<!-- 88bf1a1045484ec889a0d414fb97cb5b&#45;&gt;7868f3dd957c4d7ca63fa67f3ff73e26 -->
<g id="edge7" class="edge">
<title>88bf1a1045484ec889a0d414fb97cb5b&#45;&gt;7868f3dd957c4d7ca63fa67f3ff73e26</title>
<path fill="none" stroke="#7b8894" d="M1012.95,-940C1066.86,-940 1153.4,-940 1211.41,-940"/>
<polygon fill="#7b8894" stroke="#7b8894" points="1211.1,-943.5 1221.1,-940 1211.1,-936.5 1211.1,-943.5"/>
<text xml:space="preserve" text-anchor="middle" x="1117.83" y="-941.15" font-family="Sans-Serif" font-size="13.00" fill="#2d3436">I2C</text>
</g>
<!-- 29040ec5deaf41a3847d2ceb772482f2 -->
<g id="node7" class="node">
<title>29040ec5deaf41a3847d2ceb772482f2</title>
<image xlink:href="/Users/haysoncheung/programs/PRAXIS/praxis3/WARD/assets/diagram-icons/stepper_yaw.png" width="100.8px" height="100.8px" preserveAspectRatio="xMinYMin meet" x="1930" y="-808.4"/>
<text xml:space="preserve" text-anchor="middle" x="1980.4" y="-689.85" font-family="Sans-Serif" font-size="13.00" fill="#2d3436">Yaw stepper motor</text>
<text xml:space="preserve" text-anchor="middle" x="1980.4" y="-676.35" font-family="Sans-Serif" font-size="13.00" fill="#2d3436">360 deg sweep via gear train</text>
</g>
<!-- 0a471af32ec34cc8b4244f4aebd4ad9a&#45;&gt;29040ec5deaf41a3847d2ceb772482f2 -->
<g id="edge9" class="edge">
<title>0a471af32ec34cc8b4244f4aebd4ad9a&#45;&gt;29040ec5deaf41a3847d2ceb772482f2</title>
<path fill="none" stroke="#7b8894" d="M1735.38,-913.9C1778.11,-890.77 1841.23,-855.41 1894,-821 1902.93,-815.17 1912.2,-808.76 1921.18,-802.33"/>
<polygon fill="#7b8894" stroke="#7b8894" points="1923.14,-805.22 1929.19,-796.52 1919.04,-799.56 1923.14,-805.22"/>
<text xml:space="preserve" text-anchor="middle" x="1843.75" y="-879.9" font-family="Sans-Serif" font-size="13.00" fill="#2d3436">coil drive</text>
</g>
<!-- a3a2f3b1b27345dbae5db5ca3c1c2c48 -->
<g id="node8" class="node">
<title>a3a2f3b1b27345dbae5db5ca3c1c2c48</title>
<image xlink:href="/Users/haysoncheung/programs/PRAXIS/praxis3/WARD/assets/diagram-icons/stepper_pitch.png" width="100.8px" height="100.8px" preserveAspectRatio="xMinYMin meet" x="1930" y="-1028.4"/>
<text xml:space="preserve" text-anchor="middle" x="1980.4" y="-909.85" font-family="Sans-Serif" font-size="13.00" fill="#2d3436">Pitch stepper motor</text>
<text xml:space="preserve" text-anchor="middle" x="1980.4" y="-896.35" font-family="Sans-Serif" font-size="13.00" fill="#2d3436">vertical sweep</text>
</g>
<!-- 0a471af32ec34cc8b4244f4aebd4ad9a&#45;&gt;a3a2f3b1b27345dbae5db5ca3c1c2c48 -->
<g id="edge10" class="edge">
<title>0a471af32ec34cc8b4244f4aebd4ad9a&#45;&gt;a3a2f3b1b27345dbae5db5ca3c1c2c48</title>
<path fill="none" stroke="#7b8894" d="M1735.21,-946.36C1785.75,-952.91 1864.59,-963.12 1918.94,-970.17"/>
<polygon fill="#7b8894" stroke="#7b8894" points="1918.28,-973.61 1928.65,-971.42 1919.18,-966.67 1918.28,-973.61"/>
<text xml:space="preserve" text-anchor="middle" x="1843.75" y="-967.92" font-family="Sans-Serif" font-size="13.00" fill="#2d3436">coil drive</text>
</g>
<!-- 683bdd149e4649e5bfc55ad12881cc3f -->
<g id="node9" class="node">
<title>683bdd149e4649e5bfc55ad12881cc3f</title>
<image xlink:href="/Users/haysoncheung/miniconda3/envs/praxis/lib/python3.12/site-packages/resources/programming/language/cpp.png" width="100.8px" height="113.4px" preserveAspectRatio="xMinYMin meet" x="16" y="-1269.7"/>
<text xml:space="preserve" text-anchor="middle" x="66.4" y="-1144.85" font-family="Sans-Serif" font-size="13.00" fill="#2d3436">PlatformIO + Arduino framework</text>
<text xml:space="preserve" text-anchor="middle" x="66.4" y="-1131.35" font-family="Sans-Serif" font-size="13.00" fill="#2d3436">nanorp2040connect target</text>
</g>
<!-- 7b365b7db6d4498cb672112e7c82a41f -->
<g id="node10" class="node">
<title>7b365b7db6d4498cb672112e7c82a41f</title>
<image xlink:href="/Users/haysoncheung/miniconda3/envs/praxis/lib/python3.12/site-packages/resources/programming/language/cpp.png" width="100.8px" height="113.4px" preserveAspectRatio="xMinYMin meet" x="272.8" y="-1269.7"/>
<text xml:space="preserve" text-anchor="middle" x="323.2" y="-1144.85" font-family="Sans-Serif" font-size="13.00" fill="#2d3436">Embedded libraries</text>
<text xml:space="preserve" text-anchor="middle" x="323.2" y="-1131.35" font-family="Sans-Serif" font-size="13.00" fill="#2d3436">WiFiNINA | Stepper | VL53L1X | Wire</text>
</g>
<!-- 683bdd149e4649e5bfc55ad12881cc3f&#45;&gt;7b365b7db6d4498cb672112e7c82a41f -->
<g id="edge1" class="edge">
<title>683bdd149e4649e5bfc55ad12881cc3f&#45;&gt;7b365b7db6d4498cb672112e7c82a41f</title>
<path fill="none" stroke="#7b8894" d="M116.53,-1213C157.95,-1213 217.38,-1213 261.72,-1213"/>
<polygon fill="#7b8894" stroke="#7b8894" points="261.71,-1216.5 271.71,-1213 261.71,-1209.5 261.71,-1216.5"/>
<text xml:space="preserve" text-anchor="middle" x="194.8" y="-1214.15" font-family="Sans-Serif" font-size="13.00" fill="#2d3436">build + upload</text>
</g>
<!-- bfa0adde620e4909a33ae7cab71e3d36 -->
<g id="node11" class="node">
<title>bfa0adde620e4909a33ae7cab71e3d36</title>
<image xlink:href="/Users/haysoncheung/miniconda3/envs/praxis/lib/python3.12/site-packages/resources/programming/language/cpp.png" width="100.8px" height="113.4px" preserveAspectRatio="xMinYMin meet" x="531.85" y="-1269.7"/>
<text xml:space="preserve" text-anchor="middle" x="582.25" y="-1144.85" font-family="Sans-Serif" font-size="13.00" fill="#2d3436">Scan controller</text>
<text xml:space="preserve" text-anchor="middle" x="582.25" y="-1131.35" font-family="Sans-Serif" font-size="13.00" fill="#2d3436">pose math | sweep logic | sensor recovery</text>
</g>
<!-- 7b365b7db6d4498cb672112e7c82a41f&#45;&gt;bfa0adde620e4909a33ae7cab71e3d36 -->
<g id="edge2" class="edge">
<title>7b365b7db6d4498cb672112e7c82a41f&#45;&gt;bfa0adde620e4909a33ae7cab71e3d36</title>
<path fill="none" stroke="#7b8894" d="M373.46,-1213C415.43,-1213 475.91,-1213 520.81,-1213"/>
<polygon fill="#7b8894" stroke="#7b8894" points="520.65,-1216.5 530.65,-1213 520.65,-1209.5 520.65,-1216.5"/>
<text xml:space="preserve" text-anchor="middle" x="452.73" y="-1214.15" font-family="Sans-Serif" font-size="13.00" fill="#2d3436">used by</text>
</g>
<!-- bfa0adde620e4909a33ae7cab71e3d36&#45;&gt;7868f3dd957c4d7ca63fa67f3ff73e26 -->
<g id="edge3" class="edge">
<title>bfa0adde620e4909a33ae7cab71e3d36&#45;&gt;7868f3dd957c4d7ca63fa67f3ff73e26</title>
<path fill="none" stroke="#7b8894" d="M632.47,-1246.26C715.25,-1297.76 886.46,-1385.08 1021.2,-1327 1142,-1274.92 1211,-1130.22 1244.92,-1033.28"/>
<polygon fill="#7b8894" stroke="#7b8894" points="1248.16,-1034.62 1248.1,-1024.02 1241.54,-1032.34 1248.16,-1034.62"/>
<text xml:space="preserve" text-anchor="middle" x="962.8" y="-1347.35" font-family="Sans-Serif" font-size="13.00" fill="#2d3436">runs on</text>
</g>
<!-- e68b709a03f24f4fa1e5394cca3b2a33 -->
<g id="node12" class="node">
<title>e68b709a03f24f4fa1e5394cca3b2a33</title>
<image xlink:href="/Users/haysoncheung/miniconda3/envs/praxis/lib/python3.12/site-packages/resources/programming/language/cpp.png" width="100.8px" height="113.4px" preserveAspectRatio="xMinYMin meet" x="912.4" y="-1259.7"/>
<text xml:space="preserve" text-anchor="middle" x="962.8" y="-1133.95" font-family="Sans-Serif" font-size="13.00" fill="#2d3436">Robot TCP client</text>
<text xml:space="preserve" text-anchor="middle" x="962.8" y="-1120.45" font-family="Sans-Serif" font-size="13.00" fill="#2d3436">HELLO / HEARTBEAT / POSE / POINT</text>
<text xml:space="preserve" text-anchor="middle" x="962.8" y="-1106.95" font-family="Sans-Serif" font-size="13.00" fill="#2d3436">START_SCAN / STOP_SCAN / HARD_STOP</text>
</g>
<!-- bfa0adde620e4909a33ae7cab71e3d36&#45;&gt;e68b709a03f24f4fa1e5394cca3b2a33 -->
<g id="edge5" class="edge">
<title>bfa0adde620e4909a33ae7cab71e3d36&#45;&gt;e68b709a03f24f4fa1e5394cca3b2a33</title>
<path fill="none" stroke="#7b8894" d="M632.35,-1211.7C701.33,-1209.88 826.81,-1206.57 901.41,-1204.6"/>
<polygon fill="#7b8894" stroke="#7b8894" points="901.07,-1208.11 910.97,-1204.34 900.88,-1201.11 901.07,-1208.11"/>
<text xml:space="preserve" text-anchor="middle" x="772.53" y="-1211.73" font-family="Sans-Serif" font-size="13.00" fill="#2d3436">telemetry + scan points</text>
</g>
<!-- e68b709a03f24f4fa1e5394cca3b2a33&#45;&gt;7868f3dd957c4d7ca63fa67f3ff73e26 -->
<g id="edge4" class="edge">
<title>e68b709a03f24f4fa1e5394cca3b2a33&#45;&gt;7868f3dd957c4d7ca63fa67f3ff73e26</title>
<path fill="none" stroke="#7b8894" d="M1012.95,-1161.04C1067.64,-1114.34 1155.93,-1038.97 1213.93,-989.45"/>
<polygon fill="#7b8894" stroke="#7b8894" points="1216.13,-992.17 1221.47,-983.01 1211.59,-986.85 1216.13,-992.17"/>
<text xml:space="preserve" text-anchor="middle" x="1117.83" y="-1126.44" font-family="Sans-Serif" font-size="13.00" fill="#2d3436">line protocol over Wi&#45;Fi</text>
</g>
<!-- 10d595e3449e4f84810b255a2026509f -->
<g id="node13" class="node">
<title>10d595e3449e4f84810b255a2026509f</title>
<image xlink:href="/Users/haysoncheung/miniconda3/envs/praxis/lib/python3.12/site-packages/resources/onprem/compute/server.png" width="100.8px" height="100.8px" preserveAspectRatio="xMinYMin meet" x="531.85" y="-176.4"/>
<text xml:space="preserve" text-anchor="middle" x="582.25" y="-58.75" font-family="Sans-Serif" font-size="13.00" fill="#2d3436">Laptop / workstation</text>
</g>
<!-- c8f5400fa38a47efb9e8c13f09ed35eb -->
<g id="node14" class="node">
<title>c8f5400fa38a47efb9e8c13f09ed35eb</title>
<image xlink:href="/Users/haysoncheung/miniconda3/envs/praxis/lib/python3.12/site-packages/resources/programming/framework/fastapi.png" width="100.8px" height="100.8px" preserveAspectRatio="xMinYMin meet" x="912.4" y="-219.4"/>
<text xml:space="preserve" text-anchor="middle" x="962.8" y="-99.95" font-family="Sans-Serif" font-size="13.00" fill="#2d3436">FastAPI + Uvicorn</text>
<text xml:space="preserve" text-anchor="middle" x="962.8" y="-86.45" font-family="Sans-Serif" font-size="13.00" fill="#2d3436">point_cloud_server.py</text>
<text xml:space="preserve" text-anchor="middle" x="962.8" y="-72.95" font-family="Sans-Serif" font-size="13.00" fill="#2d3436">HTTP 8000</text>
</g>
<!-- 10d595e3449e4f84810b255a2026509f&#45;&gt;c8f5400fa38a47efb9e8c13f09ed35eb -->
<g id="edge14" class="edge">
<title>10d595e3449e4f84810b255a2026509f&#45;&gt;c8f5400fa38a47efb9e8c13f09ed35eb</title>
<path fill="none" stroke="#7b8894" d="M632.35,-131.58C701.33,-139.41 826.81,-153.67 901.41,-162.14"/>
<polygon fill="#7b8894" stroke="#7b8894" points="900.65,-165.58 910.98,-163.23 901.44,-158.62 900.65,-165.58"/>
</g>
<!-- 10d595e3449e4f84810b255a2026509f&#45;&gt;993cc0c327824753ac10d2074c31140f -->
<g id="edge15" class="edge">
<title>10d595e3449e4f84810b255a2026509f&#45;&gt;993cc0c327824753ac10d2074c31140f</title>
<path fill="none" stroke="#7b8894" d="M632.51,-105.02C713.57,-73.16 880.16,-18.91 1021.2,-45 1089.22,-57.58 1162.63,-87.85 1212.31,-111.06"/>
<polygon fill="#7b8894" stroke="#7b8894" points="1210.64,-114.14 1221.17,-115.25 1213.63,-107.81 1210.64,-114.14"/>
</g>
<!-- c8f5400fa38a47efb9e8c13f09ed35eb&#45;&gt;993cc0c327824753ac10d2074c31140f -->
<g id="edge16" class="edge">
<title>c8f5400fa38a47efb9e8c13f09ed35eb&#45;&gt;993cc0c327824753ac10d2074c31140f</title>
<path fill="none" stroke="#7b8894" d="M1012.95,-164.53C1066.86,-159.63 1153.4,-151.77 1211.41,-146.49"/>
<polygon fill="#7b8894" stroke="#7b8894" points="1211.47,-150 1221.11,-145.61 1210.84,-143.03 1211.47,-150"/>
<text xml:space="preserve" text-anchor="middle" x="1117.83" y="-161.88" font-family="Sans-Serif" font-size="13.00" fill="#2d3436">shared runtime state</text>
</g>
<!-- c8f5400fa38a47efb9e8c13f09ed35eb&#45;&gt;91a27470ec0f4745a6fe83da2b2bb41c -->
<g id="edge18" class="edge">
<title>c8f5400fa38a47efb9e8c13f09ed35eb&#45;&gt;91a27470ec0f4745a6fe83da2b2bb41c</title>
<path fill="none" stroke="#7b8894" d="M1012.94,-183.52C1060.91,-199.45 1134.13,-228.59 1186.45,-271.5 1196.73,-279.93 1206.4,-289.88 1215.28,-300.35"/>
<polygon fill="#7b8894" stroke="#7b8894" points="1212.55,-302.55 1221.58,-308.08 1217.97,-298.12 1212.55,-302.55"/>
<text xml:space="preserve" text-anchor="middle" x="1117.83" y="-272.65" font-family="Sans-Serif" font-size="13.00" fill="#2d3436">serves /</text>
</g>
<!-- 993cc0c327824753ac10d2074c31140f&#45;&gt;3c38e65274dd46a8becb575243661271 -->
<g id="edge13" class="edge">
<title>993cc0c327824753ac10d2074c31140f&#45;&gt;3c38e65274dd46a8becb575243661271</title>
<path fill="none" stroke="#7b8894" d="M1314.9,-238.11C1317.99,-247.12 1320.83,-256.17 1323.25,-265 1350.57,-364.8 1291.07,-417.17 1359.25,-495 1425.83,-571.01 1549.37,-588.23 1623.43,-591.34"/>
<polygon fill="#7b8894" stroke="#7b8894" points="1623.25,-594.84 1633.36,-591.68 1623.48,-587.84 1623.25,-594.84"/>
<text xml:space="preserve" text-anchor="middle" x="1468" y="-588.72" font-family="Sans-Serif" font-size="13.00" fill="#2d3436">newline robot commands</text>
</g>
<!-- e030f527015b471c871c66b7b78321ce -->
<g id="node16" class="node">
<title>e030f527015b471c871c66b7b78321ce</title>
<image xlink:href="/Users/haysoncheung/miniconda3/envs/praxis/lib/python3.12/site-packages/resources/generic/storage/storage.png" width="100.8px" height="100.8px" preserveAspectRatio="xMinYMin meet" x="1634.73" y="-292.4"/>
<text xml:space="preserve" text-anchor="middle" x="1685.13" y="-171.15" font-family="Sans-Serif" font-size="13.00" fill="#2d3436">Capture artifacts</text>
<text xml:space="preserve" text-anchor="middle" x="1685.13" y="-157.65" font-family="Sans-Serif" font-size="13.00" fill="#2d3436">captures/*.csv</text>
<text xml:space="preserve" text-anchor="middle" x="1685.13" y="-144.15" font-family="Sans-Serif" font-size="13.00" fill="#2d3436">baseline_scan.csv</text>
<text xml:space="preserve" text-anchor="middle" x="1685.13" y="-130.65" font-family="Sans-Serif" font-size="13.00" fill="#2d3436">baseline meta JSON</text>
<text xml:space="preserve" text-anchor="middle" x="1685.13" y="-117.15" font-family="Sans-Serif" font-size="13.00" fill="#2d3436">residual captures</text>
</g>
<!-- 993cc0c327824753ac10d2074c31140f&#45;&gt;e030f527015b471c871c66b7b78321ce -->
<g id="edge17" class="edge">
<title>993cc0c327824753ac10d2074c31140f&#45;&gt;e030f527015b471c871c66b7b78321ce</title>
<path fill="none" stroke="#7b8894" d="M1322.93,-153.08C1398.3,-171.64 1542.34,-207.1 1623.91,-227.18"/>
<polygon fill="#7b8894" stroke="#7b8894" points="1622.97,-230.55 1633.52,-229.54 1624.64,-223.75 1622.97,-230.55"/>
<text xml:space="preserve" text-anchor="middle" x="1468" y="-216.06" font-family="Sans-Serif" font-size="13.00" fill="#2d3436">writes captures / baseline / residuals</text>
</g>
<!-- e030f527015b471c871c66b7b78321ce&#45;&gt;8a019e0f425f4704937a23f021294027 -->
<g id="edge25" class="edge">
<title>e030f527015b471c871c66b7b78321ce&#45;&gt;8a019e0f425f4704937a23f021294027</title>
<path fill="none" stroke="#7b8894" d="M1735.21,-260.41C1785.97,-279.45 1865.25,-309.19 1919.63,-329.58"/>
<polygon fill="#7b8894" stroke="#7b8894" points="1918.14,-332.76 1928.74,-333 1920.6,-326.21 1918.14,-332.76"/>
<text xml:space="preserve" text-anchor="middle" x="1843.75" y="-320.65" font-family="Sans-Serif" font-size="13.00" fill="#2d3436">offline CSV input</text>
</g>
<!-- 91a27470ec0f4745a6fe83da2b2bb41c&#45;&gt;c8f5400fa38a47efb9e8c13f09ed35eb -->
<g id="edge20" class="edge">
<title>91a27470ec0f4745a6fe83da2b2bb41c&#45;&gt;c8f5400fa38a47efb9e8c13f09ed35eb</title>
<path fill="none" stroke="#7b8894" d="M1222.88,-376.81C1174.69,-362.94 1101.01,-336.53 1049.2,-294 1038.7,-285.38 1028.96,-275.15 1020.1,-264.3"/>
<polygon fill="#7b8894" stroke="#7b8894" points="1023.05,-262.39 1014.12,-256.68 1017.54,-266.71 1023.05,-262.39"/>
<text xml:space="preserve" text-anchor="middle" x="1117.83" y="-420.38" font-family="Sans-Serif" font-size="13.00" fill="#2d3436">GET /api/status</text>
<text xml:space="preserve" text-anchor="middle" x="1117.83" y="-406.88" font-family="Sans-Serif" font-size="13.00" fill="#2d3436">GET /api/live&#45;points</text>
<text xml:space="preserve" text-anchor="middle" x="1117.83" y="-393.38" font-family="Sans-Serif" font-size="13.00" fill="#2d3436">POST /api/robot/*</text>
<text xml:space="preserve" text-anchor="middle" x="1117.83" y="-379.88" font-family="Sans-Serif" font-size="13.00" fill="#2d3436">POST /api/baseline/*</text>
<text xml:space="preserve" text-anchor="middle" x="1117.83" y="-366.38" font-family="Sans-Serif" font-size="13.00" fill="#2d3436">POST /api/monitoring/*</text>
</g>
<!-- 5319134e16834934b165a26913cf140a -->
<g id="node18" class="node">
<title>5319134e16834934b165a26913cf140a</title>
<image xlink:href="/Users/haysoncheung/miniconda3/envs/praxis/lib/python3.12/site-packages/resources/programming/language/nodejs.png" width="100.8px" height="100.8px" preserveAspectRatio="xMinYMin meet" x="272.8" y="-436.4"/>
<text xml:space="preserve" text-anchor="middle" x="323.2" y="-317.85" font-family="Sans-Serif" font-size="13.00" fill="#2d3436">viewer&#45;react toolchain</text>
<text xml:space="preserve" text-anchor="middle" x="323.2" y="-304.35" font-family="Sans-Serif" font-size="13.00" fill="#2d3436">npm | Vite dev/build</text>
</g>
<!-- 5319134e16834934b165a26913cf140a&#45;&gt;ff72d2581de447278a5fc113ada88031 -->
<g id="edge21" class="edge">
<title>5319134e16834934b165a26913cf140a&#45;&gt;ff72d2581de447278a5fc113ada88031</title>
<path fill="none" stroke="#7b8894" d="M373.46,-386.38C415.43,-386.71 475.91,-387.18 520.81,-387.53"/>
<polygon fill="#7b8894" stroke="#7b8894" points="520.62,-391.03 530.65,-387.61 520.67,-384.03 520.62,-391.03"/>
<text xml:space="preserve" text-anchor="middle" x="452.73" y="-388.45" font-family="Sans-Serif" font-size="13.00" fill="#2d3436">serves / builds</text>
</g>
<!-- ff72d2581de447278a5fc113ada88031&#45;&gt;c8f5400fa38a47efb9e8c13f09ed35eb -->
<g id="edge23" class="edge">
<title>ff72d2581de447278a5fc113ada88031&#45;&gt;c8f5400fa38a47efb9e8c13f09ed35eb</title>
<path fill="none" stroke="#7b8894" d="M632.47,-359.46C644.32,-352.59 656.93,-345.28 668.65,-338.5 749.69,-291.58 843.37,-237.43 902.59,-203.21"/>
<polygon fill="#7b8894" stroke="#7b8894" points="904.3,-206.27 911.21,-198.23 900.8,-200.21 904.3,-206.27"/>
<text xml:space="preserve" text-anchor="middle" x="772.53" y="-366.65" font-family="Sans-Serif" font-size="13.00" fill="#2d3436">GET /api/status</text>
<text xml:space="preserve" text-anchor="middle" x="772.53" y="-353.15" font-family="Sans-Serif" font-size="13.00" fill="#2d3436">GET /api/live&#45;points</text>
<text xml:space="preserve" text-anchor="middle" x="772.53" y="-339.65" font-family="Sans-Serif" font-size="13.00" fill="#2d3436">POST /api/baseline/import</text>
</g>
<!-- 922a9e883fc64952abb5c0db3ff08a14 -->
<g id="node20" class="node">
<title>922a9e883fc64952abb5c0db3ff08a14</title>
<image xlink:href="/Users/haysoncheung/miniconda3/envs/praxis/lib/python3.12/site-packages/resources/generic/storage/storage.png" width="100.8px" height="100.8px" preserveAspectRatio="xMinYMin meet" x="912.4" y="-453.4"/>
<text xml:space="preserve" text-anchor="middle" x="962.8" y="-334.85" font-family="Sans-Serif" font-size="13.00" fill="#2d3436">Viewer bundle JSON</text>
<text xml:space="preserve" text-anchor="middle" x="962.8" y="-321.35" font-family="Sans-Serif" font-size="13.00" fill="#2d3436">raw / baseline / residual snapshots</text>
</g>
<!-- ff72d2581de447278a5fc113ada88031&#45;&gt;922a9e883fc64952abb5c0db3ff08a14 -->
<g id="edge24" class="edge">
<title>ff72d2581de447278a5fc113ada88031&#45;&gt;922a9e883fc64952abb5c0db3ff08a14</title>
<path fill="none" stroke="#7b8894" d="M632.35,-389.95C701.33,-392.68 826.81,-397.65 901.41,-400.61"/>
<polygon fill="#7b8894" stroke="#7b8894" points="900.84,-404.09 910.97,-400.99 901.12,-397.09 900.84,-404.09"/>
<text xml:space="preserve" text-anchor="middle" x="772.53" y="-400.53" font-family="Sans-Serif" font-size="13.00" fill="#2d3436">export / import snapshots</text>
</g>
<!-- a15797b6de104420b59632c32e69a4f3 -->
<g id="node22" class="node">
<title>a15797b6de104420b59632c32e69a4f3</title>
<image xlink:href="/Users/haysoncheung/miniconda3/envs/praxis/lib/python3.12/site-packages/resources/generic/storage/storage.png" width="100.8px" height="100.8px" preserveAspectRatio="xMinYMin meet" x="2148.55" y="-402.4"/>
<text xml:space="preserve" text-anchor="middle" x="2198.95" y="-282.95" font-family="Sans-Serif" font-size="13.00" fill="#2d3436">Rendered plots</text>
<text xml:space="preserve" text-anchor="middle" x="2198.95" y="-269.45" font-family="Sans-Serif" font-size="13.00" fill="#2d3436">lidar_map.png</text>
<text xml:space="preserve" text-anchor="middle" x="2198.95" y="-255.95" font-family="Sans-Serif" font-size="13.00" fill="#2d3436">lidar_point_cloud_3d.png</text>
</g>
<!-- 8a019e0f425f4704937a23f021294027&#45;&gt;a15797b6de104420b59632c32e69a4f3 -->
<g id="edge27" class="edge">
<title>8a019e0f425f4704937a23f021294027&#45;&gt;a15797b6de104420b59632c32e69a4f3</title>
<path fill="none" stroke="#7b8894" d="M2030.54,-352C2062.27,-352 2103.77,-352 2137.51,-352"/>
<polygon fill="#7b8894" stroke="#7b8894" points="2137.12,-355.5 2147.12,-352 2137.12,-348.5 2137.12,-355.5"/>
<text xml:space="preserve" text-anchor="middle" x="2089.68" y="-353.15" font-family="Sans-Serif" font-size="13.00" fill="#2d3436">renders</text>
</g>
</g>
</svg>
